<svg width="1200" height="1200" viewBox="0 0 1200 1200" fill="none" xmlns="http://www.w3.org/2000/svg">
<path d="M581.328 147.713C581.456 147.698 581.584 147.683 581.712 147.668C603.43 146.806 625.09 147.393 646.65 149.677C743.2 159.514 834.23 199.4 906.91 263.713C996.315 344.423 1051.49 453.782 1057.61 574.688C1062.59 673.29 1035.08 770.8 979.305 852.255C965.64 872 950.64 890.785 934.415 908.485C921.705 922.535 901.42 940.49 886.795 952.14C810.75 1012.82 717.385 1047.78 620.18 1051.96C588.495 1052.39 564.916 1051.84 533.055 1047.25C442.701 1033.71 358.28 994.04 290.189 933.125C220.589 869.78 172.426 786.345 152.38 694.395C146.836 668.89 143.473 642.96 142.325 616.885C136.965 500.647 177.788 387.005 255.888 300.747C341.193 205.851 454.277 154.464 581.328 147.713Z" fill="#E0E0DF"/>
<path d="M581.16 192.214C593.845 191.867 606.055 191.61 618.75 192.227C715.055 196.759 806.85 234.397 878.615 298.782C957.265 368.6 1005.33 466.532 1012.44 571.461C1019.29 677.985 983.8 782.91 913.69 863.405C849.57 935.87 766.915 984.36 671.11 1000.81C653.895 1003.6 636.54 1005.45 619.125 1006.38C533.58 1010.14 448.937 987.6 376.598 941.785C357.347 929.815 339.184 916.175 322.319 901.025C226.402 813.67 176.119 688.49 188.344 559.013C196.675 472.491 233.213 391.106 292.332 327.386C367.117 246.141 470.867 197.586 581.16 192.214Z" fill="#3ED3A8"/>
<path d="M593.255 246.258C689.41 244.448 776.16 279.637 846.75 344.289C914.99 406.979 955.335 494.35 958.8 586.951C962.725 677.625 927.325 767.58 866.245 834.165C813.015 892.855 742.075 932.555 664.21 947.225C643.235 951.055 627.635 952.02 606.55 952.93C510.937 954.245 418.666 917.795 349.77 851.49C283.074 788.025 244.026 700.87 241.064 608.85C238.618 513.916 272.869 427.527 338.206 358.824C404.739 288.693 496.602 248.148 593.255 246.258Z" fill="#FEFEFC"/>
<path d="M583.589 333.493C730.609 324.615 856.979 436.615 865.834 583.636C874.684 730.658 762.664 857.008 615.639 865.838C468.655 874.658 342.34 762.673 333.49 615.688C324.641 468.703 436.607 342.369 583.589 333.493Z" fill="#5B5D64"/>
</svg>
